<?xml version="1.0" standalone="no"?>
<!DOCTYPE svg PUBLIC "-//W3C//DTD SVG 20010904//EN"
 "http://www.w3.org/TR/2001/REC-SVG-20010904/DTD/svg10.dtd">
<svg version="1.0" xmlns="http://www.w3.org/2000/svg"
 width="96.000000pt" height="96.000000pt" viewBox="0 0 96.000000 96.000000"
 preserveAspectRatio="xMidYMid meet">
<metadata>
Created by potrace 1.11, written by Peter Selinger 2001-2013
</metadata>
<g transform="translate(0.000000,96.000000) scale(0.100000,-0.100000)"
fill="#000000" stroke="none">
<path d="M387 870 c-128 -33 -237 -132 -285 -260 -31 -86 -26 -205 14 -290 45
-93 102 -153 187 -195 206 -102 440 -18 540 192 29 62 32 77 32 163 0 86 -3
101 -31 160 -69 144 -191 229 -340 236 -44 2 -96 -1 -117 -6z m208 -91 c95
-41 170 -126 192 -216 l11 -43 -99 0 -99 0 -34 38 c-31 34 -39 37 -86 37 -47
0 -55 -3 -86 -37 l-34 -38 -100 0 c-55 0 -100 1 -100 3 0 16 37 108 53 132 45
66 115 116 192 136 41 11 154 3 190 -12z m-85 -274 c15 -18 10 -45 -12 -59
-35 -22 -74 27 -48 59 16 19 44 19 60 0z m-116 -102 c31 -35 39 -38 86 -38 47
0 55 3 86 38 l34 37 100 0 100 0 -6 -27 c-12 -51 -67 -144 -103 -174 -66 -54
-118 -73 -206 -73 -120 -1 -210 45 -270 138 -33 52 -58 120 -47 130 3 3 47 6
99 6 l93 0 34 -37z"/>
</g>
</svg>
